<svg width="1184" height="284" viewBox="0 0 1184 284" fill="none" xmlns="http://www.w3.org/2000/svg">
<mask id="path-1-inside-1_17_12" fill="white">
<path fill-rule="evenodd" clip-rule="evenodd" d="M39.7456 1.10466C39.7456 1.71025 42.5696 7.79121 46.0212 14.6176C49.4728 21.4441 52.2968 27.9949 52.2968 29.1748C52.2968 30.5321 42.67 31.3235 26.1484 31.3235H0V56.3824V81.4412H88.9046H177.809V56.3824V31.3235H150.615H123.42V15.6618V0H81.583C58.5724 0 39.7456 0.496983 39.7456 1.10466ZM177.809 6.31696C177.809 7.49473 181.104 14.9873 185.131 22.9706L192.452 37.4839V160.742V284H225.922H259.392V227.618V171.235H278.219H297.046V143.044V114.853H278.219H259.392V59.5147V4.17647H218.601C192.139 4.17647 177.809 4.92829 177.809 6.31696ZM372.353 6.89956C346.36 11.8529 327.694 24.8312 318.096 44.6256C310.756 59.7611 309.091 82.5125 310.057 154.506C310.898 217.185 311.168 220.894 315.77 232.644C328.568 265.314 367.54 282.588 413.49 275.956C444.749 271.443 463.415 259.225 474.575 235.971L480.085 224.485L480.677 143.829C481.252 65.6248 481.133 62.8015 476.757 50.9028C470.148 32.9398 453.403 17.0588 434.578 10.9069C417.076 5.18514 390.371 3.46442 372.353 6.89956ZM497.866 5.10575C497.866 5.61528 501.16 13.2498 505.187 22.0705L512.509 38.1103V161.055V284H545.979H579.449V144.088V4.17647H538.657C516.222 4.17647 497.866 4.59413 497.866 5.10575ZM665.738 98.9844C637.839 148.833 615.011 190.671 615.011 191.959C615.011 193.623 625.681 194.137 651.878 193.732L688.745 193.162L715.157 145.809C729.683 119.764 742.203 99.0909 742.977 99.8677C743.751 100.645 755.649 121.953 769.416 147.221L794.447 193.162L834.588 193.73C868.847 194.214 874.627 193.851 874.043 191.257C873.664 189.585 860.178 164.227 844.071 134.906C817.173 85.9456 814.272 81.508 808.509 80.4932C805.057 79.8876 791.675 78.2064 778.773 76.7614L755.312 74.1324L772.223 43.901C781.522 27.2745 789.592 12.4731 790.153 11.0113C790.958 8.92096 783.206 8.35294 753.821 8.35294H716.466L665.738 98.9844ZM905.781 9.25507C905.781 9.74999 908.605 17.8022 912.057 27.1471L918.332 44.1369V106.151V168.168L930.743 181.186L943.154 194.206H1060.44H1177.72V168.124V142.042L1080.98 141.499L984.226 140.956L983.603 126.606L982.977 112.255L991.859 118.775L1000.74 125.294H1086.09H1171.45V100.235V75.1765H1077.31H983.18V67.8677V60.5588H1078.36H1173.54V34.4559V8.35294H1039.66C966.027 8.35294 905.781 8.75807 905.781 9.25507ZM409.484 68.1914C414.166 73.2929 414.191 73.698 414.191 141.751C414.191 210.051 414.182 210.191 409.484 214.485C403.02 220.39 396.987 221.865 390.059 219.236C378.713 214.93 378.767 215.308 378.696 140.797C378.629 71.7894 378.633 71.7246 383.336 67.4542C392.285 59.3247 401.591 59.5879 409.484 68.1914ZM57.2315 94.0938C40.8815 99.2685 25.774 109.398 18.4963 120.074C8.19176 135.184 5.76101 149.499 6.5852 190.194C7.29017 225.007 7.57258 227.083 13.137 238.395C27.6608 267.919 62.5177 282.906 104.378 277.625C132.784 274.041 153.895 260.305 164.672 238.395C170.237 227.083 170.519 225.007 171.224 190.194C172.048 149.499 169.617 135.184 159.313 120.074C141.944 94.6012 94.1029 82.4269 57.2315 94.0938ZM105.05 146.298C110.263 152.612 111.309 161.139 110.524 190.952L109.823 217.529L102.991 223.617C93.7619 231.844 84.0473 231.844 74.8179 223.619L67.9859 217.529L67.3855 187.597C66.8751 162.177 67.3499 156.559 70.5233 150.353C76.9851 137.717 96.1132 135.47 105.05 146.298ZM606.643 247.456V275.647H744.707H882.77V247.456V219.265H744.707H606.643V247.456ZM907.873 247.456V275.647H1045.94H1184V247.456V219.265H1045.94H907.873V247.456Z"/>
</mask>
<path fill-rule="evenodd" clip-rule="evenodd" d="M39.7456 1.10466C39.7456 1.71025 42.5696 7.79121 46.0212 14.6176C49.4728 21.4441 52.2968 27.9949 52.2968 29.1748C52.2968 30.5321 42.67 31.3235 26.1484 31.3235H0V56.3824V81.4412H88.9046H177.809V56.3824V31.3235H150.615H123.42V15.6618V0H81.583C58.5724 0 39.7456 0.496983 39.7456 1.10466ZM177.809 6.31696C177.809 7.49473 181.104 14.9873 185.131 22.9706L192.452 37.4839V160.742V284H225.922H259.392V227.618V171.235H278.219H297.046V143.044V114.853H278.219H259.392V59.5147V4.17647H218.601C192.139 4.17647 177.809 4.92829 177.809 6.31696ZM372.353 6.89956C346.36 11.8529 327.694 24.8312 318.096 44.6256C310.756 59.7611 309.091 82.5125 310.057 154.506C310.898 217.185 311.168 220.894 315.77 232.644C328.568 265.314 367.54 282.588 413.49 275.956C444.749 271.443 463.415 259.225 474.575 235.971L480.085 224.485L480.677 143.829C481.252 65.6248 481.133 62.8015 476.757 50.9028C470.148 32.9398 453.403 17.0588 434.578 10.9069C417.076 5.18514 390.371 3.46442 372.353 6.89956ZM497.866 5.10575C497.866 5.61528 501.16 13.2498 505.187 22.0705L512.509 38.1103V161.055V284H545.979H579.449V144.088V4.17647H538.657C516.222 4.17647 497.866 4.59413 497.866 5.10575ZM665.738 98.9844C637.839 148.833 615.011 190.671 615.011 191.959C615.011 193.623 625.681 194.137 651.878 193.732L688.745 193.162L715.157 145.809C729.683 119.764 742.203 99.0909 742.977 99.8677C743.751 100.645 755.649 121.953 769.416 147.221L794.447 193.162L834.588 193.73C868.847 194.214 874.627 193.851 874.043 191.257C873.664 189.585 860.178 164.227 844.071 134.906C817.173 85.9456 814.272 81.508 808.509 80.4932C805.057 79.8876 791.675 78.2064 778.773 76.7614L755.312 74.1324L772.223 43.901C781.522 27.2745 789.592 12.4731 790.153 11.0113C790.958 8.92096 783.206 8.35294 753.821 8.35294H716.466L665.738 98.9844ZM905.781 9.25507C905.781 9.74999 908.605 17.8022 912.057 27.1471L918.332 44.1369V106.151V168.168L930.743 181.186L943.154 194.206H1060.44H1177.72V168.124V142.042L1080.98 141.499L984.226 140.956L983.603 126.606L982.977 112.255L991.859 118.775L1000.74 125.294H1086.09H1171.45V100.235V75.1765H1077.31H983.18V67.8677V60.5588H1078.36H1173.54V34.4559V8.35294H1039.66C966.027 8.35294 905.781 8.75807 905.781 9.25507ZM409.484 68.1914C414.166 73.2929 414.191 73.698 414.191 141.751C414.191 210.051 414.182 210.191 409.484 214.485C403.02 220.39 396.987 221.865 390.059 219.236C378.713 214.93 378.767 215.308 378.696 140.797C378.629 71.7894 378.633 71.7246 383.336 67.4542C392.285 59.3247 401.591 59.5879 409.484 68.1914ZM57.2315 94.0938C40.8815 99.2685 25.774 109.398 18.4963 120.074C8.19176 135.184 5.76101 149.499 6.5852 190.194C7.29017 225.007 7.57258 227.083 13.137 238.395C27.6608 267.919 62.5177 282.906 104.378 277.625C132.784 274.041 153.895 260.305 164.672 238.395C170.237 227.083 170.519 225.007 171.224 190.194C172.048 149.499 169.617 135.184 159.313 120.074C141.944 94.6012 94.1029 82.4269 57.2315 94.0938ZM105.05 146.298C110.263 152.612 111.309 161.139 110.524 190.952L109.823 217.529L102.991 223.617C93.7619 231.844 84.0473 231.844 74.8179 223.619L67.9859 217.529L67.3855 187.597C66.8751 162.177 67.3499 156.559 70.5233 150.353C76.9851 137.717 96.1132 135.47 105.05 146.298ZM606.643 247.456V275.647H744.707H882.77V247.456V219.265H744.707H606.643V247.456ZM907.873 247.456V275.647H1045.94H1184V247.456V219.265H1045.94H907.873V247.456Z" stroke="url(#paint0_linear_17_12)" stroke-opacity="0.6" stroke-width="2" mask="url(#path-1-inside-1_17_12)"/>
<defs>
<linearGradient id="paint0_linear_17_12" x1="592" y1="0" x2="592" y2="409.5" gradientUnits="userSpaceOnUse">
<stop stop-color="#6F6800"/>
<stop offset="1" stop-color="#6F6800" stop-opacity="0"/>
</linearGradient>
</defs>
</svg>
