<svg width="510" height="740" viewBox="0 0 510 740" fill="none" xmlns="http://www.w3.org/2000/svg">
<path d="M1 255C1 114.72 114.72 1 255 1C395.28 1 509 114.72 509 255V485C509 625.28 395.28 739 255 739C114.72 739 1 625.28 1 485V255Z" fill="#2F2F2F"/>
<path d="M125.768 326.285C117.46 331.829 109.23 340.531 106.153 344.188C98.7683 317.853 102.23 281.131 105.884 252.062C110.499 223.186 109.345 213.946 104.153 210.48C88.4607 200.316 77.9993 218.951 74.7301 229.539C63.6533 257.26 66.1533 353.621 68.0764 412.336C66.6918 506.127 90.5761 554.044 98.6529 568.846C128.653 623.827 157.729 615.979 170.998 604.428C196.383 578.093 180.96 555.793 165.575 544.435C119 519.5 113.653 448.143 110.191 415.802C116.191 405.175 123.845 399.438 126.922 397.898C128.768 409.449 129.88 425.633 130.383 434.86C132 464.5 138.076 463.747 143.076 465.864C161.075 472.333 172.498 457.009 175.96 448.539C181.624 434.678 178.268 407.524 174.806 390.39C167.883 353.891 168.845 292.018 170.191 265.644C173.421 222.214 173.46 181.71 173.075 166.887C172.836 157.647 168.46 147.214 164.422 141.476C150.114 121.147 138.845 127.615 131.499 136.278C119.525 150.399 127.46 237.346 129.768 263.334C131.614 284.125 126.537 313.964 125.768 326.285Z" fill="white"/>
<path d="M199.475 182.726C191.636 244.966 193.903 331.988 196.016 367.718C198 385 203.441 388.273 210.494 383.278C218.794 376.363 232.78 367.56 238.735 366.023C256 360.5 277.543 346.695 285.42 341.124C303.402 325.449 310.587 306.246 311.932 295.104C313.085 278.968 299.252 281.273 292.913 288.765C280.537 303.389 252.568 315.851 240.465 317.004C235.854 314.238 237.391 297.794 238.735 289.918C247.035 284.846 264.479 280.121 272.164 278.392C280.463 276.548 285.867 264.1 284.844 258.221C283.518 250.602 281.254 249.795 278.61 248.852L278.504 248.814C266.977 244.664 246.036 250.543 237.006 254C233.318 250.312 233.933 230.017 234.701 224.83C241.156 219.297 263.903 218.683 274.469 219.067C285.535 220.45 291.376 219.801 292.913 217.304C307.898 189.641 294.449 171.968 287.149 166.589C262.251 151.836 231.051 151.99 218.563 153.911C199.198 154.833 200.435 173.505 199.475 182.726Z" fill="white"/>
<path d="M201.837 135.871C255.935 123.418 295.651 134.526 306.247 141.637C335.839 202.057 336.833 279.277 331.632 307.335C304.352 362.22 308.183 376.86 318.008 380.319C339.739 388.16 349.337 372.675 352.42 360.952C362.245 285.5 397.189 261.864 412.794 255.33C431.289 245.529 413.95 229.503 405.281 230.657C389.676 231.233 371.759 244.109 364.245 251.988C351.761 223.854 352.493 182.993 354.42 168.58C365.979 172.731 373 185.5 379.85 188.3C409.168 200.281 413.372 176.401 405.281 165.509C357.656 101.399 252.505 95.3647 205.883 100.361C183.342 104.973 179.874 117.657 178.14 125.728C176.291 145.561 193.168 138.754 201.837 135.871Z" fill="white"/>
<path d="M212.392 410.624C138.899 538.54 231.081 560.668 290.015 556.242C313.076 554.51 310.237 559.364 307.349 568.6C299.953 595.384 258.726 577.258 235.037 577.258C187.428 580.029 203.259 618.819 228.681 628.055C295.704 647.104 328.726 625.169 351.26 584.185C381.305 507.99 326.415 502.174 299.26 511.218C262.859 523.34 237.637 511.454 233.015 489.519C226.659 435.836 262.593 425.795 284.548 425.795C316.5 423.5 324.5 401 309.082 392.771C256 368 225.104 388.501 212.392 410.624Z" fill="white"/>
<path d="M288.861 446.635C262.063 457.707 268.07 478.543 274.423 487.577C301.567 513.526 357.138 454.628 380.24 428.103C392.253 461.779 389.55 503.03 383.197 517.446C374.881 538.667 374.727 550.891 375.689 554.351C382.748 579.724 403.336 566.037 410.539 553.351C443.805 494.764 420.09 411.076 405.074 374.555C411.08 351.95 428.753 327.847 436.838 318.62C467.448 274.795 440.031 269.608 425.4 271.146C394.906 274.836 386.427 307.664 381.999 326.117C371.373 367.635 353.09 395.545 348.278 403.81C330.721 435.641 302.722 442.022 288.861 446.635Z" fill="white"/>
<path d="M307.927 236.011C299.666 236.471 301.808 245.016 303.912 249.231C307.124 254.748 310.987 250.763 312.517 248.081C316.647 237.966 311.178 235.82 307.927 236.011Z" fill="white"/>
<path d="M366.746 480.552C359.563 476.344 356.617 484.688 356.043 489.386C355.675 495.791 361.126 494.602 363.897 493.208C372.975 487.036 369.579 482.199 366.746 480.552Z" fill="white"/>
<path d="M199.214 552.987C192.18 557.439 198.242 563.884 202.153 566.55C207.676 569.815 209.12 564.426 209.152 561.324C207.833 550.426 201.977 551.225 199.214 552.987Z" fill="white"/>
<path d="M125.768 326.285L126.046 326.701L126.252 326.563L126.267 326.316L125.768 326.285ZM106.153 344.188L105.671 344.323L105.927 345.234L106.535 344.51L106.153 344.188ZM105.884 252.062L105.39 251.984L105.389 251.992L105.388 252L105.884 252.062ZM104.153 210.48L104.43 210.065L104.425 210.061L104.153 210.48ZM74.7301 229.539L75.1944 229.724L75.2019 229.706L75.2078 229.686L74.7301 229.539ZM68.0764 412.336L68.5763 412.344L68.5765 412.332L68.5761 412.32L68.0764 412.336ZM98.6529 568.846L99.0918 568.607L99.0918 568.607L98.6529 568.846ZM170.998 604.428L171.327 604.805L171.343 604.791L171.358 604.775L170.998 604.428ZM165.575 544.435L165.872 544.033L165.843 544.011L165.811 543.994L165.575 544.435ZM110.191 415.802L109.756 415.556L109.677 415.695L109.694 415.855L110.191 415.802ZM126.922 397.898L127.416 397.819L127.308 397.146L126.698 397.451L126.922 397.898ZM130.383 434.86L129.884 434.887L129.884 434.887L130.383 434.86ZM143.076 465.864L142.881 466.325L142.893 466.33L142.907 466.335L143.076 465.864ZM175.96 448.539L176.423 448.728L176.423 448.728L175.96 448.539ZM174.806 390.39L174.315 390.484L174.316 390.489L174.806 390.39ZM170.191 265.644L169.692 265.607L169.691 265.619L170.191 265.644ZM173.075 166.887L173.575 166.874L173.575 166.874L173.075 166.887ZM164.422 141.476L164.013 141.764L164.013 141.764L164.422 141.476ZM131.499 136.278L131.117 135.955L131.117 135.955L131.499 136.278ZM129.768 263.334L130.266 263.29L130.266 263.29L129.768 263.334ZM199.475 182.726L199.971 182.788L199.972 182.778L199.475 182.726ZM196.016 367.718L195.517 367.748L195.518 367.761L195.52 367.775L196.016 367.718ZM210.494 383.278L210.783 383.686L210.799 383.675L210.814 383.662L210.494 383.278ZM238.735 366.023L238.86 366.508L238.874 366.504L238.888 366.5L238.735 366.023ZM285.42 341.124L285.709 341.532L285.729 341.518L285.749 341.501L285.42 341.124ZM311.932 295.104L312.429 295.164L312.43 295.152L312.431 295.14L311.932 295.104ZM292.913 288.765L292.531 288.442L292.531 288.442L292.913 288.765ZM240.465 317.004L240.207 317.433L240.348 317.517L240.512 317.502L240.465 317.004ZM238.735 289.918L238.475 289.491L238.281 289.61L238.243 289.834L238.735 289.918ZM272.164 278.392L272.055 277.904L272.054 277.904L272.164 278.392ZM284.844 258.221L284.351 258.307L284.351 258.307L284.844 258.221ZM278.61 248.852L278.442 249.322L278.442 249.323L278.61 248.852ZM278.504 248.814L278.334 249.284L278.336 249.285L278.504 248.814ZM237.006 254L236.653 254.354L236.882 254.583L237.185 254.467L237.006 254ZM234.701 224.83L234.376 224.45L234.234 224.572L234.206 224.757L234.701 224.83ZM274.469 219.067L274.531 218.571L274.509 218.568L274.487 218.567L274.469 219.067ZM292.913 217.304L293.338 217.566L293.346 217.554L293.352 217.542L292.913 217.304ZM287.149 166.589L287.446 166.187L287.425 166.172L287.404 166.159L287.149 166.589ZM218.563 153.911L218.587 154.41L218.613 154.409L218.639 154.405L218.563 153.911ZM201.837 135.871L201.725 135.384L201.702 135.389L201.679 135.397L201.837 135.871ZM306.247 141.637L306.696 141.417L306.637 141.296L306.526 141.221L306.247 141.637ZM331.632 307.335L332.079 307.557L332.111 307.495L332.123 307.426L331.632 307.335ZM318.008 380.319L318.178 379.849L318.174 379.847L318.008 380.319ZM352.42 360.952L352.903 361.079L352.911 361.048L352.916 361.016L352.42 360.952ZM412.794 255.33L412.987 255.791L413.008 255.782L413.028 255.772L412.794 255.33ZM405.281 230.657L405.299 231.156L405.323 231.155L405.347 231.152L405.281 230.657ZM364.245 251.988L363.788 252.191L364.091 252.874L364.607 252.333L364.245 251.988ZM354.42 168.58L354.589 168.11L354.006 167.901L353.924 168.514L354.42 168.58ZM379.85 188.3L380.039 187.837L380.039 187.837L379.85 188.3ZM405.281 165.509L405.682 165.211L405.682 165.211L405.281 165.509ZM205.883 100.361L205.829 99.8641L205.806 99.8666L205.783 99.8714L205.883 100.361ZM178.14 125.728L177.652 125.623L177.645 125.652L177.643 125.682L178.14 125.728ZM212.392 410.624L212.826 410.874L212.826 410.874L212.392 410.624ZM290.015 556.242L290.053 556.741L290.053 556.741L290.015 556.242ZM307.349 568.6L306.871 568.451L306.869 568.459L306.867 568.467L307.349 568.6ZM235.037 577.258V576.758H235.022L235.008 576.759L235.037 577.258ZM228.681 628.055L228.511 628.525L228.527 628.531L228.545 628.536L228.681 628.055ZM351.26 584.185L351.698 584.426L351.713 584.398L351.725 584.369L351.26 584.185ZM299.26 511.218L299.418 511.692L299.418 511.692L299.26 511.218ZM233.015 489.519L232.518 489.577L232.521 489.6L232.526 489.622L233.015 489.519ZM284.548 425.795V426.295H284.566L284.584 426.294L284.548 425.795ZM309.082 392.771L309.317 392.33L309.306 392.323L309.293 392.318L309.082 392.771ZM288.861 446.635L288.703 446.161L288.686 446.167L288.67 446.173L288.861 446.635ZM274.423 487.577L274.014 487.865L274.042 487.905L274.077 487.939L274.423 487.577ZM380.24 428.103L380.711 427.935L380.424 427.13L379.863 427.774L380.24 428.103ZM383.197 517.446L382.74 517.244L382.735 517.254L382.732 517.264L383.197 517.446ZM375.689 554.351L376.171 554.217L376.171 554.217L375.689 554.351ZM410.539 553.351L410.104 553.104L410.104 553.104L410.539 553.351ZM405.074 374.555L404.591 374.426L404.547 374.589L404.611 374.745L405.074 374.555ZM436.838 318.62L437.214 318.95L437.233 318.929L437.248 318.907L436.838 318.62ZM425.4 271.146L425.348 270.648L425.34 270.649L425.4 271.146ZM381.999 326.117L382.484 326.241L382.485 326.233L381.999 326.117ZM348.278 403.81L347.845 403.559L347.84 403.569L348.278 403.81ZM307.927 236.011L307.955 236.511L307.957 236.511L307.927 236.011ZM303.912 249.231L303.464 249.454L303.471 249.468L303.48 249.482L303.912 249.231ZM312.517 248.081L312.951 248.329L312.967 248.3L312.98 248.27L312.517 248.081ZM366.746 480.552L366.494 480.984L366.495 480.985L366.746 480.552ZM356.043 489.386L355.546 489.325L355.544 489.341L355.543 489.357L356.043 489.386ZM363.897 493.208L364.122 493.654L364.151 493.64L364.179 493.621L363.897 493.208ZM199.214 552.987L199.482 553.409L199.483 553.408L199.214 552.987ZM202.153 566.55L201.871 566.963L201.885 566.972L201.898 566.98L202.153 566.55ZM209.152 561.324L209.652 561.329L209.653 561.296L209.649 561.264L209.152 561.324ZM1.5 255C1.5 114.996 114.996 1.5 255 1.5V0.5C114.444 0.5 0.5 114.444 0.5 255H1.5ZM255 1.5C395.004 1.5 508.5 114.996 508.5 255H509.5C509.5 114.444 395.556 0.5 255 0.5V1.5ZM508.5 255V485H509.5V255H508.5ZM508.5 485C508.5 625.004 395.004 738.5 255 738.5V739.5C395.556 739.5 509.5 625.556 509.5 485H508.5ZM255 738.5C114.996 738.5 1.5 625.004 1.5 485H0.5C0.5 625.556 114.444 739.5 255 739.5V738.5ZM1.5 485V255H0.5V485H1.5ZM125.49 325.869C117.127 331.45 108.862 340.191 105.77 343.866L106.535 344.51C109.598 340.87 117.793 332.208 126.046 326.701L125.49 325.869ZM106.634 344.053C99.2814 317.831 102.724 281.211 106.38 252.125L105.388 252C101.736 281.052 98.2552 317.875 105.671 344.323L106.634 344.053ZM106.377 252.141C108.686 237.7 109.559 228.125 109.195 221.714C108.831 215.302 107.222 211.927 104.43 210.065L103.875 210.896C106.276 212.499 107.84 215.477 108.197 221.771C108.554 228.065 107.697 237.548 105.39 251.984L106.377 252.141ZM104.425 210.061C100.417 207.465 96.6997 206.683 93.3214 207.187C89.9524 207.689 86.9817 209.462 84.4394 211.864C79.3665 216.658 75.8999 224.055 74.2523 229.391L75.2078 229.686C76.8294 224.434 80.2282 217.22 85.1263 212.591C87.5696 210.282 90.3608 208.639 93.4689 208.176C96.5677 207.714 100.043 208.414 103.881 210.9L104.425 210.061ZM74.2658 229.353C71.4675 236.356 69.5427 247.64 68.2491 261.493C66.9542 275.361 66.288 291.854 66.0283 309.307C65.5089 344.215 66.6151 382.995 67.5767 412.353L68.5761 412.32C67.6146 382.962 66.5092 344.204 67.0282 309.322C67.2877 291.881 67.9533 275.417 69.2448 261.586C70.5378 247.739 72.4542 236.582 75.1944 229.724L74.2658 229.353ZM67.5765 412.329C66.1904 506.218 90.102 554.219 98.214 569.086L99.0918 568.607C91.0501 553.869 67.1932 506.036 68.5763 412.344L67.5765 412.329ZM98.214 569.086C113.244 596.631 128.102 608.551 140.968 612.069C153.85 615.592 164.604 610.657 171.327 604.805L170.67 604.051C164.123 609.75 153.704 614.515 141.231 611.104C128.742 607.689 114.062 596.043 99.0918 568.607L98.214 569.086ZM171.358 604.775C184.145 591.51 186.716 579.179 184.06 568.692C181.414 558.249 173.612 549.747 165.872 544.033L165.278 544.837C172.924 550.482 180.525 558.809 183.09 568.938C185.645 579.024 183.236 591.012 170.638 604.081L171.358 604.775ZM165.811 543.994C142.697 531.619 129.771 507.701 122.194 482.75C114.619 457.806 112.421 431.934 110.688 415.748L109.694 415.855C111.423 432.01 113.629 457.987 121.237 483.041C128.843 508.089 141.879 532.316 165.339 544.876L165.811 543.994ZM110.627 416.047C116.581 405.502 124.164 399.838 127.146 398.345L126.698 397.451C123.526 399.039 115.801 404.848 109.756 415.556L110.627 416.047ZM126.428 397.977C128.27 409.5 129.381 425.661 129.884 434.887L130.883 434.833C130.379 425.605 129.266 409.398 127.416 397.819L126.428 397.977ZM129.884 434.887C130.693 449.713 132.617 457.048 135.036 460.947C137.489 464.9 140.474 465.306 142.881 466.325L143.271 465.404C140.677 464.306 138.125 464.029 135.886 460.42C133.612 456.755 131.691 449.647 130.883 434.833L129.884 434.887ZM142.907 466.335C152.086 469.634 159.615 467.371 165.266 463.206C170.896 459.058 174.666 453.026 176.423 448.728L175.497 448.349C173.792 452.522 170.12 458.387 164.673 462.401C159.248 466.399 152.065 468.563 143.245 465.394L142.907 466.335ZM176.423 448.728C179.299 441.688 179.869 431.339 179.304 420.665C178.739 409.971 177.03 398.874 175.296 390.291L174.316 390.489C176.043 399.04 177.744 410.086 178.306 420.718C178.869 431.37 178.285 441.528 175.497 448.349L176.423 448.728ZM175.297 390.297C168.387 353.862 169.344 292.043 170.69 265.67L169.691 265.619C168.345 291.993 167.38 353.919 174.315 390.484L175.297 390.297ZM170.689 265.682C173.921 222.233 173.96 181.712 173.575 166.874L172.575 166.9C172.96 181.709 172.921 222.196 169.692 265.607L170.689 265.682ZM173.575 166.874C173.332 157.516 168.913 146.99 164.83 141.188L164.013 141.764C168.007 147.439 172.339 157.778 172.575 166.9L173.575 166.874ZM164.83 141.188C157.639 130.971 151.109 127.339 145.335 127.505C139.589 127.671 134.813 131.597 131.117 135.955L131.88 136.602C135.531 132.296 140.062 128.657 145.364 128.505C150.638 128.353 156.896 131.652 164.013 141.764L164.83 141.188ZM131.117 135.955C129.543 137.811 128.336 140.807 127.406 144.607C126.473 148.421 125.807 153.106 125.354 158.39C124.448 168.962 124.39 181.988 124.778 195.37C125.554 222.138 128.116 250.386 129.27 263.379L130.266 263.29C129.112 250.294 126.553 222.074 125.777 195.341C125.39 181.973 125.449 168.991 126.35 158.476C126.801 153.218 127.462 148.59 128.378 144.845C129.297 141.085 130.461 138.276 131.88 136.602L131.117 135.955ZM129.27 263.379C130.189 273.724 129.385 286.343 128.251 297.937C127.12 309.497 125.654 320.087 125.269 326.254L126.267 326.316C126.651 320.162 128.108 309.672 129.246 298.035C130.381 286.432 131.194 273.735 130.266 263.29L129.27 263.379ZM198.979 182.663C191.134 244.95 193.404 332.009 195.517 367.748L196.516 367.689C194.403 331.967 192.138 244.982 199.971 182.788L198.979 182.663ZM195.52 367.775C196.018 372.116 196.736 375.599 197.65 378.303C198.563 381.002 199.683 382.96 201.011 384.215C202.354 385.486 203.896 386.02 205.576 385.883C207.233 385.747 208.982 384.962 210.783 383.686L210.205 382.87C208.48 384.092 206.904 384.771 205.495 384.886C204.109 384.999 202.844 384.572 201.698 383.489C200.535 382.39 199.483 380.602 198.597 377.982C197.713 375.368 197.007 371.961 196.513 367.661L195.52 367.775ZM210.814 383.662C214.942 380.223 220.494 376.307 225.756 373.059C231.037 369.801 235.964 367.255 238.86 366.508L238.611 365.539C235.551 366.329 230.507 368.952 225.231 372.208C219.937 375.475 214.346 379.418 210.174 382.894L210.814 383.662ZM238.888 366.5C256.229 360.952 277.825 347.108 285.709 341.532L285.131 340.716C277.262 346.282 255.771 360.048 238.583 365.547L238.888 366.5ZM285.749 341.501C303.829 325.74 311.07 306.422 312.429 295.164L311.436 295.044C310.105 306.071 302.975 325.158 285.091 340.747L285.749 341.501ZM312.431 295.14C312.723 291.044 312.072 288.042 310.76 285.984C309.438 283.909 307.479 282.846 305.293 282.578C300.973 282.047 295.776 284.607 292.531 288.442L293.294 289.088C296.389 285.431 301.278 283.092 305.171 283.57C307.092 283.806 308.771 284.724 309.917 286.521C311.072 288.335 311.717 291.097 311.433 295.069L312.431 295.14ZM292.531 288.442C286.405 295.681 276.387 302.416 266.361 307.49C256.33 312.567 246.377 315.938 240.417 316.506L240.512 317.502C246.655 316.916 256.739 313.481 266.812 308.382C276.89 303.282 287.044 296.474 293.294 289.088L292.531 288.442ZM240.722 316.575C239.754 315.995 239.025 314.628 238.547 312.598C238.076 310.597 237.879 308.079 237.867 305.375C237.843 299.971 238.559 293.922 239.228 290.002L238.243 289.834C237.567 293.79 236.842 299.9 236.867 305.379C236.879 308.117 237.078 310.72 237.573 312.827C238.062 314.904 238.87 316.63 240.207 317.433L240.722 316.575ZM238.996 290.344C243.091 287.842 249.478 285.407 255.832 283.377C262.176 281.351 268.444 279.741 272.274 278.879L272.054 277.904C268.199 278.771 261.903 280.389 255.528 282.425C249.164 284.458 242.679 286.922 238.475 289.491L238.996 290.344ZM272.272 278.88C276.625 277.913 280.146 274.194 282.437 270.062C284.726 265.934 285.875 261.232 285.336 258.135L284.351 258.307C284.835 261.089 283.795 265.551 281.562 269.577C279.332 273.6 276.002 277.027 272.055 277.904L272.272 278.88ZM285.336 258.135C284.668 254.295 283.751 252.085 282.605 250.712C281.446 249.324 280.096 248.851 278.778 248.381L278.442 249.323C279.768 249.796 280.872 250.197 281.837 251.353C282.816 252.525 283.693 254.528 284.351 258.307L285.336 258.135ZM278.778 248.381L278.672 248.343L278.336 249.285L278.442 249.322L278.778 248.381ZM278.673 248.343C272.779 246.221 264.55 246.676 256.731 248.062C248.891 249.451 241.367 251.795 236.828 253.533L237.185 254.467C241.675 252.748 249.137 250.423 256.906 249.047C264.697 247.666 272.702 247.257 278.334 249.284L278.673 248.343ZM237.36 253.647C236.974 253.261 236.611 252.619 236.287 251.729C235.965 250.848 235.696 249.762 235.474 248.528C235.031 246.058 234.787 243.04 234.682 239.96C234.471 233.795 234.817 227.457 235.196 224.903L234.206 224.757C233.816 227.39 233.471 233.793 233.683 239.994C233.789 243.097 234.035 246.169 234.49 248.704C234.717 249.972 234.999 251.118 235.347 252.072C235.692 253.018 236.117 253.818 236.653 254.354L237.36 253.647ZM235.026 225.21C236.551 223.903 239.09 222.85 242.277 222.025C245.449 221.204 249.201 220.624 253.094 220.227C260.88 219.433 269.185 219.375 274.451 219.567L274.487 218.567C269.187 218.374 260.835 218.432 252.993 219.232C249.072 219.632 245.266 220.219 242.027 221.057C238.803 221.892 236.079 222.99 234.376 224.45L235.026 225.21ZM274.407 219.563C279.953 220.256 284.223 220.445 287.314 220.138C290.363 219.835 292.435 219.034 293.338 217.566L292.487 217.042C291.853 218.071 290.236 218.843 287.215 219.143C284.235 219.439 280.051 219.261 274.531 218.571L274.407 219.563ZM293.352 217.542C300.9 203.608 301.309 192.141 298.869 183.455C296.434 174.786 291.174 168.934 287.446 166.187L286.852 166.992C290.425 169.624 295.539 175.298 297.907 183.726C300.269 192.137 299.91 203.337 292.473 217.066L293.352 217.542ZM287.404 166.159C262.369 151.325 231.038 151.486 218.487 153.417L218.639 154.405C231.063 152.494 262.132 152.347 286.894 167.02L287.404 166.159ZM218.539 153.411C213.615 153.646 209.957 155.012 207.24 157.11C204.526 159.205 202.788 162.001 201.649 165.03C200.512 168.056 199.965 171.332 199.642 174.411C199.48 175.952 199.373 177.449 199.277 178.844C199.181 180.243 199.096 181.532 198.977 182.674L199.972 182.778C200.093 181.614 200.179 180.303 200.275 178.912C200.371 177.518 200.477 176.036 200.636 174.515C200.956 171.471 201.491 168.292 202.585 165.382C203.678 162.476 205.321 159.854 207.851 157.901C210.379 155.95 213.829 154.637 218.587 154.41L218.539 153.411ZM201.949 136.359C228.94 130.145 252.336 129.811 270.297 131.914C288.278 134.019 300.765 138.56 305.968 142.052L306.526 141.221C301.133 137.602 288.464 133.034 270.413 130.921C252.342 128.805 228.831 129.144 201.725 135.384L201.949 136.359ZM305.798 141.856C320.56 171.998 328.196 206.347 331.49 236.676C334.784 267.009 333.729 293.277 331.14 307.244L332.123 307.426C334.736 293.335 335.785 266.964 332.484 236.568C329.183 206.166 321.525 171.695 306.696 141.417L305.798 141.856ZM331.184 307.112C317.54 334.563 311.643 352.011 310.408 363.056C309.791 368.583 310.334 372.558 311.705 375.392C313.086 378.244 315.28 379.889 317.842 380.791L318.174 379.847C315.823 379.02 313.854 377.537 312.605 374.956C311.348 372.357 310.796 368.594 311.402 363.167C312.616 352.307 318.443 334.992 332.079 307.557L331.184 307.112ZM317.838 380.789C328.845 384.761 336.864 382.841 342.518 378.364C348.137 373.914 351.348 366.995 352.903 361.079L351.936 360.825C350.409 366.632 347.28 373.317 341.897 377.58C336.549 381.815 328.902 383.718 318.178 379.849L317.838 380.789ZM352.916 361.016C362.72 285.729 397.558 262.251 412.987 255.791L412.601 254.869C396.82 261.476 361.771 285.271 351.924 360.887L352.916 361.016ZM413.028 255.772C417.726 253.282 420.232 250.352 421.122 247.318C422.012 244.284 421.255 241.252 419.651 238.625C418.048 236.001 415.582 233.744 412.965 232.215C410.36 230.693 407.536 229.852 405.215 230.161L405.347 231.152C407.361 230.884 409.955 231.615 412.461 233.079C414.956 234.537 417.293 236.683 418.797 239.146C420.3 241.607 420.952 244.346 420.162 247.037C419.373 249.729 417.11 252.477 412.56 254.888L413.028 255.772ZM405.262 230.157C397.343 230.449 388.879 233.857 381.478 238.151C374.071 242.449 367.675 247.667 363.883 251.643L364.607 252.333C368.329 248.43 374.648 243.27 381.98 239.016C389.317 234.759 397.614 231.44 405.299 231.156L405.262 230.157ZM364.702 251.785C358.494 237.793 355.562 220.61 354.427 205.102C353.293 189.598 353.957 175.815 354.915 168.647L353.924 168.514C352.956 175.759 352.291 189.612 353.43 205.175C354.568 220.735 357.513 238.048 363.788 252.191L364.702 251.785ZM354.251 169.051C359.916 171.085 364.493 175.241 368.547 179.3C370.561 181.316 372.462 183.324 374.274 184.989C376.087 186.655 377.863 188.028 379.661 188.762L380.039 187.837C378.412 187.172 376.742 185.899 374.951 184.253C373.159 182.607 371.297 180.638 369.255 178.593C365.196 174.53 360.483 170.226 354.589 168.11L354.251 169.051ZM379.661 188.762C387.042 191.779 392.899 192.563 397.412 191.818C401.939 191.072 405.086 188.79 407.016 185.75C410.85 179.713 409.83 170.794 405.682 165.211L404.879 165.807C408.823 171.116 409.747 179.583 406.172 185.214C404.398 188.008 401.502 190.13 397.249 190.832C392.98 191.536 387.317 190.811 380.039 187.837L379.661 188.762ZM405.682 165.211C381.77 133.021 343.444 115.444 305.32 106.533C267.189 97.6211 229.189 97.3606 205.829 99.8641L205.936 100.858C229.199 98.3653 267.085 98.6237 305.092 107.507C343.105 116.392 381.167 133.887 404.879 165.807L405.682 165.211ZM205.783 99.8714C194.425 102.195 187.811 106.568 183.822 111.431C179.841 116.285 178.521 121.574 177.652 125.623L178.629 125.833C179.493 121.811 180.775 116.723 184.596 112.065C188.41 107.415 194.8 103.139 205.983 100.851L205.783 99.8714ZM177.643 125.682C177.175 130.693 177.879 134.126 179.432 136.37C181.001 138.636 183.369 139.6 186.003 139.816C188.624 140.032 191.554 139.513 194.345 138.775C197.137 138.036 199.843 137.061 201.995 136.346L201.679 135.397C199.496 136.123 196.841 137.08 194.089 137.808C191.335 138.537 188.536 139.021 186.085 138.82C183.647 138.619 181.602 137.747 180.255 135.801C178.893 133.834 178.181 130.68 178.638 125.775L177.643 125.682ZM211.959 410.375C193.564 442.392 185.505 467.839 184.729 487.944C183.951 508.069 190.473 522.828 201.192 533.417C211.896 543.991 226.747 550.37 242.582 553.833C258.421 557.296 275.282 557.85 290.053 556.741L289.978 555.744C275.281 556.847 258.519 556.294 242.796 552.856C227.068 549.417 212.417 543.1 201.895 532.705C191.388 522.326 184.961 507.845 185.728 487.983C186.496 468.101 194.474 442.815 212.826 410.874L211.959 410.375ZM290.053 556.741C295.808 556.309 299.916 556.29 302.798 556.64C305.699 556.992 307.252 557.706 308.031 558.63C308.79 559.532 308.914 560.76 308.61 562.44C308.305 564.126 307.603 566.111 306.871 568.451L307.826 568.749C308.538 566.471 309.275 564.385 309.594 562.618C309.914 560.845 309.848 559.236 308.795 557.986C307.762 556.759 305.881 556.007 302.919 555.647C299.938 555.286 295.752 555.31 289.978 555.744L290.053 556.741ZM306.867 568.467C305.061 575.007 301.211 578.775 296.079 580.787C290.912 582.811 284.418 583.064 277.344 582.475C270.276 581.885 262.699 580.462 255.376 579.179C248.07 577.9 241.01 576.758 235.037 576.758V577.758C240.909 577.758 247.885 578.883 255.203 580.164C262.503 581.443 270.137 582.877 277.261 583.471C284.38 584.065 291.06 583.827 296.444 581.718C301.862 579.594 305.939 575.584 307.831 568.733L306.867 568.467ZM235.008 576.759C223.047 577.455 214.986 580.417 210.056 584.688C205.107 588.976 203.367 594.54 203.975 600.285C204.581 606.011 207.513 611.904 211.876 616.939C216.243 621.976 222.068 626.185 228.511 628.525L228.852 627.585C222.583 625.308 216.896 621.204 212.632 616.284C208.365 611.361 205.548 605.652 204.969 600.18C204.393 594.727 206.033 589.496 210.711 585.443C215.409 581.373 223.222 578.447 235.066 577.758L235.008 576.759ZM228.545 628.536C262.121 638.079 287.258 637.378 306.849 629.093C326.441 620.807 340.402 604.972 351.698 584.426L350.822 583.944C339.585 604.382 325.767 620.006 306.459 628.172C287.15 636.338 262.264 637.08 228.818 627.574L228.545 628.536ZM351.725 584.369C359.253 565.276 361.484 550.539 360.125 539.307C358.764 528.059 353.804 520.344 347.007 515.335C340.224 510.336 331.652 508.057 323.093 507.59C314.533 507.122 305.948 508.464 299.102 510.743L299.418 511.692C306.149 509.45 314.609 508.128 323.039 508.588C331.471 509.049 339.835 511.291 346.413 516.14C352.977 520.978 357.803 528.439 359.132 539.428C360.464 550.434 358.289 564.996 350.795 584.002L351.725 584.369ZM299.102 510.743C280.975 516.78 265.69 516.818 254.393 512.67C243.109 508.527 235.777 500.203 233.504 489.416L232.526 489.622C234.875 500.769 242.465 509.356 254.048 513.609C265.617 517.857 281.144 517.778 299.418 511.692L299.102 510.743ZM233.511 489.46C230.348 462.741 237.713 446.994 248.487 437.908C259.293 428.795 273.628 426.295 284.548 426.295V425.295C273.513 425.295 258.904 427.815 247.843 437.144C236.75 446.498 229.326 462.613 232.518 489.577L233.511 489.46ZM284.584 426.294C300.657 425.139 310.831 418.893 315.01 411.761C317.102 408.191 317.688 404.397 316.728 400.946C315.767 397.493 313.274 394.442 309.317 392.33L308.846 393.212C312.599 395.215 314.888 398.062 315.765 401.214C316.642 404.368 316.123 407.885 314.147 411.255C310.193 418.004 300.391 424.156 284.513 425.296L284.584 426.294ZM309.293 392.318C282.67 379.894 261.547 378.795 245.454 383.633C229.364 388.47 218.367 399.222 211.959 410.375L212.826 410.874C219.129 399.903 229.936 389.343 245.742 384.591C261.545 379.84 282.412 380.877 308.87 393.224L309.293 392.318ZM288.67 446.173C275.142 451.763 269.798 459.87 268.715 467.803C267.639 475.688 270.79 483.281 274.014 487.865L274.832 487.29C271.702 482.839 268.674 475.497 269.706 467.938C270.731 460.427 275.782 452.58 289.052 447.098L288.67 446.173ZM274.077 487.939C281.021 494.577 289.777 495.762 299.278 493.447C308.76 491.137 319.036 485.334 329.143 477.921C349.364 463.09 369.063 441.698 380.617 428.431L379.863 427.774C368.316 441.033 348.678 462.353 328.552 477.115C318.485 484.498 308.335 490.212 299.041 492.476C289.766 494.735 281.396 493.552 274.768 487.216L274.077 487.939ZM379.769 428.271C385.751 445.042 388.074 463.714 388.106 479.998C388.137 496.297 385.874 510.131 382.74 517.244L383.655 517.648C386.873 510.344 389.137 496.345 389.106 479.996C389.074 463.63 386.741 444.839 380.711 427.935L379.769 428.271ZM382.732 517.264C378.562 527.902 376.434 536.299 375.469 542.482C374.508 548.645 374.697 552.651 375.207 554.485L376.171 554.217C375.718 552.591 375.503 548.755 376.458 542.636C377.409 536.536 379.516 528.21 383.663 517.628L382.732 517.264ZM375.207 554.485C376.99 560.892 379.649 564.917 382.816 567.095C385.997 569.282 389.615 569.553 393.188 568.607C400.288 566.726 407.33 560.016 410.974 553.598L410.104 553.104C406.545 559.372 399.692 565.849 392.932 567.64C389.575 568.529 386.272 568.257 383.383 566.271C380.48 564.275 377.918 560.497 376.171 554.217L375.207 554.485ZM410.974 553.598C427.681 524.175 430.062 488.484 426.409 455.623C422.755 422.755 413.057 392.657 405.536 374.365L404.611 374.745C412.106 392.974 421.774 422.98 425.415 455.733C429.057 488.494 426.664 523.941 410.104 553.104L410.974 553.598ZM405.557 374.683C411.534 352.189 429.147 328.155 437.214 318.95L436.462 318.291C428.359 327.538 410.626 351.711 404.591 374.426L405.557 374.683ZM437.248 318.907C444.918 307.925 448.984 299.322 450.509 292.608C452.038 285.883 451.024 281.014 448.487 277.575C445.961 274.151 441.989 272.234 437.776 271.265C433.559 270.294 429.044 270.26 425.348 270.648L425.452 271.643C429.071 271.262 433.47 271.3 437.552 272.239C441.638 273.179 445.351 275.01 447.682 278.169C450.002 281.313 451.017 285.862 449.534 292.387C448.049 298.923 444.063 307.403 436.428 318.334L437.248 318.907ZM425.34 270.649C409.892 272.519 400.031 281.778 393.494 292.841C386.967 303.888 383.726 316.777 381.513 326L382.485 326.233C384.7 317.003 387.913 304.252 394.355 293.35C400.788 282.463 410.414 273.463 425.46 271.642L425.34 270.649ZM381.515 325.993C370.908 367.433 352.664 395.284 347.846 403.559L348.71 404.062C353.517 395.807 371.837 367.838 382.484 326.241L381.515 325.993ZM347.84 403.569C330.391 435.203 302.596 441.537 288.703 446.161L289.019 447.11C302.848 442.507 331.05 436.08 348.715 404.052L347.84 403.569ZM307.9 235.512C305.747 235.632 304.202 236.284 303.165 237.325C302.13 238.364 301.659 239.732 301.535 241.17C301.289 244.023 302.395 247.311 303.464 249.454L304.359 249.007C303.325 246.935 302.308 243.843 302.531 241.256C302.641 239.974 303.052 238.855 303.873 238.031C304.692 237.209 305.977 236.621 307.955 236.511L307.9 235.512ZM303.48 249.482C304.314 250.916 305.229 251.798 306.199 252.215C307.183 252.639 308.156 252.555 309.036 252.193C310.749 251.488 312.168 249.702 312.951 248.329L312.083 247.833C311.336 249.142 310.058 250.691 308.655 251.268C307.976 251.548 307.286 251.594 306.594 251.297C305.889 250.993 305.115 250.304 304.344 248.979L303.48 249.482ZM312.98 248.27C315.07 243.152 314.803 239.877 313.398 237.892C312.003 235.92 309.616 235.411 307.898 235.512L307.957 236.511C309.489 236.42 311.463 236.889 312.582 238.47C313.692 240.039 314.094 242.895 312.054 247.892L312.98 248.27ZM366.999 480.121C365.128 479.025 363.472 478.712 362.024 479.007C360.581 479.301 359.427 480.183 358.525 481.318C356.736 483.57 355.839 486.937 355.546 489.325L356.539 489.446C356.822 487.137 357.685 483.983 359.308 481.94C360.112 480.929 361.077 480.22 362.224 479.987C363.368 479.754 364.773 479.976 366.494 480.984L366.999 480.121ZM355.543 489.357C355.448 491.021 355.725 492.267 356.307 493.155C356.896 494.055 357.758 494.527 358.696 494.712C360.523 495.074 362.703 494.369 364.122 493.654L363.673 492.761C362.32 493.442 360.389 494.028 358.89 493.731C358.164 493.587 357.559 493.242 357.143 492.607C356.72 491.96 356.454 490.953 356.542 489.414L355.543 489.357ZM364.179 493.621C368.772 490.499 370.364 487.609 370.288 485.168C370.212 482.742 368.494 480.99 366.998 480.12L366.495 480.985C367.831 481.762 369.228 483.252 369.289 485.199C369.349 487.131 368.101 489.745 363.616 492.794L364.179 493.621ZM198.947 552.564C197.115 553.724 196.077 555.052 195.675 556.473C195.274 557.891 195.528 559.321 196.123 560.643C197.303 563.266 199.884 565.608 201.871 566.963L202.435 566.137C200.512 564.826 198.106 562.612 197.035 560.233C196.505 559.054 196.318 557.872 196.637 556.745C196.955 555.622 197.797 554.475 199.482 553.409L198.947 552.564ZM201.898 566.98C203.333 567.829 204.568 568.154 205.623 568.044C206.694 567.933 207.508 567.384 208.103 566.636C209.263 565.178 209.636 562.918 209.652 561.329L208.652 561.318C208.637 562.832 208.272 564.818 207.32 566.013C206.86 566.592 206.275 566.971 205.52 567.05C204.751 567.129 203.734 566.904 202.407 566.119L201.898 566.98ZM209.649 561.264C208.981 555.75 207.145 553.009 204.94 551.957C202.75 550.911 200.405 551.634 198.946 552.565L199.483 553.408C200.786 552.577 202.751 552.02 204.509 552.859C206.253 553.692 208.004 556 208.656 561.384L209.649 561.264Z" fill="white"/>
</svg>
