<svg width="30" height="25" viewBox="0 0 30 25" fill="none" xmlns="http://www.w3.org/2000/svg">
<path fill-rule="evenodd" clip-rule="evenodd" d="M19.7596 0.0928338C17.3584 0.535964 15.4618 2.32893 14.8268 4.75641C14.7174 5.17453 14.695 5.42267 14.6918 6.24994C14.6897 6.79559 14.7084 7.35927 14.7335 7.50249L14.7791 7.76302L14.3803 7.72568C11.7877 7.48319 9.68917 6.87538 7.60061 5.76202C5.67176 4.7338 3.66197 3.11941 2.42964 1.60832C2.2455 1.38254 2.06848 1.20673 2.03622 1.21774C2.00402 1.22868 1.87634 1.47171 1.75242 1.75785C0.906853 3.71009 1.06468 5.96711 2.16932 7.72003C2.49268 8.23309 3.01937 8.83934 3.44734 9.19096L3.89273 9.55689H3.65125C3.13481 9.55689 2.05483 9.2592 1.47498 8.95707C1.34647 8.89015 1.21979 8.83537 1.19348 8.83537C1.11036 8.83537 1.22038 9.93749 1.35613 10.4645C1.8907 12.5403 3.39918 14.1817 5.40262 14.8678C5.7351 14.9817 5.96951 15.0895 5.92353 15.1076C5.65793 15.2116 4.78527 15.282 4.10747 15.2539L3.3465 15.2223L3.38446 15.3768C3.4491 15.64 3.88366 16.4832 4.1541 16.8703C5.19458 18.3597 6.89314 19.3826 8.55096 19.5183C8.80192 19.5389 9.00719 19.5762 9.00719 19.6013C9.00719 19.703 7.68762 20.5384 6.88054 20.9477C5.04329 21.8793 3.22776 22.2824 1.08981 22.2332L0 22.2081L0.309289 22.4065C0.759743 22.6953 2.12441 23.3992 2.73781 23.6589C6.0395 25.0572 9.8942 25.3755 13.5328 24.5505C18.8875 23.3363 23.2926 19.5386 25.5174 14.2184C26.4687 11.9435 26.9459 9.70955 26.9947 7.30215L27.0167 6.21988L27.4429 5.87001C27.9879 5.42255 28.6003 4.82627 29.0614 4.29404C29.4556 3.839 30.0327 3.05333 29.9985 3.01834C29.9868 3.00643 29.8087 3.06698 29.6027 3.15296C28.823 3.47836 27.0137 3.94723 26.7433 3.89402C26.6765 3.88085 26.7248 3.82211 26.8997 3.70384C27.344 3.40351 28.1377 2.57286 28.4749 2.05523C28.7677 1.60573 29.1961 0.72452 29.198 0.567771C29.1984 0.534581 28.8374 0.688264 28.3958 0.909228C27.5976 1.30865 26.5563 1.69352 25.7403 1.89079L25.3135 1.99391L24.9566 1.65642C23.5785 0.35324 21.5901 -0.244956 19.7596 0.0928338Z" fill="#44C0A4"/>
</svg>
